<?xml version="1.0" encoding="UTF-8" standalone="no"?>
<svg
   viewBox="0 0 1024 1024"
   version="1.1"
   id="svg1"
   sodipodi:docname="icon.svg"
   inkscape:version="1.3.2 (091e20e, 2023-11-25, custom)"
   width="1024"
   height="1024"
   xmlns:inkscape="http://www.inkscape.org/namespaces/inkscape"
   xmlns:sodipodi="http://sodipodi.sourceforge.net/DTD/sodipodi-0.dtd"
   xmlns="http://www.w3.org/2000/svg"
   xmlns:svg="http://www.w3.org/2000/svg">
  <defs
     id="defs1">
    <inkscape:path-effect
       effect="fillet_chamfer"
       id="path-effect7"
       is_visible="true"
       lpeversion="1"
       nodesatellites_param="F,0,0,1,0,208.46512,0,1 @ F,0,1,1,0,208.46512,0,1 @ F,0,1,1,0,208.46512,0,1 @ F,0,1,1,0,208.46512,0,1"
       radius="0"
       unit="px"
       method="auto"
       mode="F"
       chamfer_steps="1"
       flexible="false"
       use_knot_distance="true"
       apply_no_radius="true"
       apply_with_radius="true"
       only_selected="false"
       hide_knots="false" />
    <inkscape:path-effect
       effect="fillet_chamfer"
       id="path-effect6"
       is_visible="true"
       lpeversion="1"
       nodesatellites_param="F,0,0,1,0,0,0,1 @ F,0,0,1,0,0,0,1 @ F,0,0,1,0,0,0,1 @ F,0,0,1,0,0,0,1"
       radius="0"
       unit="px"
       method="auto"
       mode="F"
       chamfer_steps="1"
       flexible="false"
       use_knot_distance="true"
       apply_no_radius="true"
       apply_with_radius="true"
       only_selected="false"
       hide_knots="false" />
  </defs>
  <sodipodi:namedview
     id="namedview1"
     pagecolor="#ffffff"
     bordercolor="#000000"
     borderopacity="0.25"
     inkscape:showpageshadow="2"
     inkscape:pageopacity="0.0"
     inkscape:pagecheckerboard="0"
     inkscape:deskcolor="#d1d1d1"
     inkscape:zoom="0.70710678"
     inkscape:cx="429.92092"
     inkscape:cy="340.11836"
     inkscape:window-width="2560"
     inkscape:window-height="1369"
     inkscape:window-x="1432"
     inkscape:window-y="553"
     inkscape:window-maximized="1"
     inkscape:current-layer="svg1" />
  <path
     id="rect5"
     style="fill:#ffffff"
     d="M 208.47164,0.00546312 H 815.53248 A 208.46512,208.46512 45 0 1 1023.9976,208.47058 v 607.0676 A 208.46512,208.46512 135 0 1 815.53248,1024.0033 H 208.47164 A 208.46512,208.46512 45 0 1 0.00652282,815.53818 V 208.47058 A 208.46512,208.46512 135 0 1 208.47164,0.00546312 Z"
     inkscape:path-effect="#path-effect7"
     inkscape:original-d="M 0.00652282,0.00546312 H 1023.9976 V 1024.0033 H 0.00652282 Z" />
  <!--!Font Awesome Free 6.7.2 by @fontawesome - https://fontawesome.com License - https://fontawesome.com/license/free Copyright 2025 Fonticons, Inc.-->
  <g
     id="g5"
     transform="translate(67.217414,49.009144)">
    <path
       d="m 773.80244,13.092021 c -25.36934,0 -50.73928,9.671659 -70.08469,29.017066 L 432.05723,313.63246 c -11.979,11.979 -20.65454,26.71399 -25.19831,42.8237 l -39.37877,137.68987 c -3.30456,11.56594 -0.13815,23.95752 8.39854,32.49428 8.53676,8.53676 20.92834,11.7031 32.49427,8.39853 l 137.68988,-39.37876 c 16.24739,-4.68145 30.9797,-13.35701 42.82103,-25.19832 L 860.54705,198.93839 c 38.69083,-38.69082 38.69083,-101.478549 0,-140.169366 L 843.88712,42.109087 C 824.54171,22.76368 799.17177,13.092021 773.80244,13.092021 Z m -0.0162,65.986259 c 8.45073,0 16.8837,3.236794 23.28628,9.708214 h 0.13707 l 16.65995,16.659936 c 12.94283,12.94284 12.94283,33.87226 0,46.6774 l -40.06707,40.20437 -63.47451,-63.47449 40.06723,-40.067216 c 6.47143,-6.47142 14.94043,-9.708214 23.39114,-9.708214 z m -110.13578,96.45283 63.47449,63.47451 -184.91589,184.77873 c -3.99301,3.993 -8.95038,6.88665 -14.32028,8.40124 l -80.54859,22.99313 22.99314,-80.54858 c 1.51459,-5.3699 4.40554,-10.32728 8.39855,-14.32028 l 0.13978,0.13707 z"
       style="fill:#0080ff;stroke-width:1.3769"
       id="path3" />
    <path
       d="M 158.71102,104.90631 C 71.059341,104.90631 0,175.96565 0,263.61733 v 490.56134 c 0,87.65168 71.059341,158.71102 158.71102,158.71102 h 490.56134 c 87.65168,0 158.71103,-71.05934 158.71103,-158.71102 V 552.18283 c 0,-23.98699 -19.29784,-43.28483 -43.28483,-43.28483 -23.98699,0 -43.28482,19.29784 -43.28482,43.28483 v 201.99584 c 0,39.85808 -32.2833,72.14138 -72.14138,72.14138 H 158.71102 c -39.85807,0 -72.141372,-32.2833 -72.141372,-72.14138 V 263.61733 c 0,-39.85807 32.283302,-72.14137 72.141372,-72.14137 h 201.99585 c 23.98699,0 43.28482,-19.29784 43.28482,-43.28483 0,-23.98698 -19.29783,-43.28482 -43.28482,-43.28482 z"
       style="fill:#0080ff;stroke-width:1.80353"
       id="path2" />
    <path
       id="path4"
       style="fill:#000000;fill-opacity:1;stroke-width:0.622061"
       d="m 515.93575,731.86958 c -37.02315,0.0197 -74.04634,4.9e-4 -111.06949,0.005 -25.70902,-6.1e-4 -51.41804,-0.001 -77.12706,-0.001 -2.49523,5.87386 -5.15005,11.67946 -7.94221,17.41771 65.74651,-10e-4 131.49327,10e-4 197.23966,-0.0162 3.91215,-0.16448 7.49588,-3.31804 8.05877,-7.2118 0.53363,-3.13347 -0.72181,-6.559 -3.32978,-8.433 -1.65663,-1.24851 -3.76208,-1.86469 -5.82989,-1.75985 z" />
    <path
       id="path3-5"
       style="fill:#000000;fill-opacity:1;stroke-width:0.622061"
       d="m 162.36146,731.87808 c -3.95614,0.0702 -7.64115,3.20207 -8.25291,7.12971 -0.57235,3.13763 0.65961,6.59145 3.264,8.4881 1.75495,1.35857 4.02497,1.94658 6.22429,1.78913 5.91735,0.005 11.8347,0.007 17.75206,0.002 -0.0245,-5.80489 0.002,-11.6096 -0.0108,-17.41428 -6.3259,10e-4 -12.65181,0.002 -18.97771,0.005 z" />
    <path
       id="path2-3"
       style="fill:#000000;fill-opacity:1;stroke-width:0.622061"
       d="m 271.96632,522.86558 c -4.99956,0.0657 -9.98939,0.82824 -14.77639,2.27319 -0.29589,0.0924 -0.80313,0.24613 -1.17935,0.37133 -6.30618,2.05823 -12.21119,5.32719 -17.33059,9.54278 -0.37658,0.31139 -0.89126,0.74875 -1.31249,1.11727 -7.90164,6.91285 -13.68468,16.20428 -16.39196,26.34817 -0.20802,0.7807 -0.43736,1.7079 -0.62063,2.55395 -0.72905,3.33062 -1.08239,6.81877 -1.1763,10.17157 -0.0523,4.03541 0.0108,8.07179 -0.0188,12.10758 0.0144,3.45815 -0.0218,6.91922 0.0821,10.37519 0.50697,5.35892 4.51221,10.21486 9.71052,11.65947 4.20817,1.25404 9.01451,0.37873 12.4284,-2.41127 0.53262,-0.41755 1.15331,-1.00998 1.52989,-1.42989 2.29559,-2.47359 3.63668,-5.8148 3.61462,-9.19641 0.0428,-2.59124 -0.02,-5.18301 0.007,-7.77458 0.0108,-4.75628 -0.0438,-9.51483 0.0853,-14.26938 0.60816,-8.70559 5.95707,-16.90962 13.67937,-20.97664 7.01844,-3.77985 15.80006,-4.14212 23.06037,-0.81314 6.59803,2.94434 11.89104,8.73038 14.104,15.62351 1.10275,3.31437 1.46081,6.83631 1.32852,10.31575 0.0678,14.04383 -0.7153,28.09796 -2.54421,42.02489 -0.7256,5.65567 -1.62634,11.28731 -2.61287,16.903 -19.32278,5.79926 -38.65898,11.55591 -57.96334,17.41516 -1.94308,0.6506 -3.84445,1.42387 -5.69829,2.29638 -0.35706,0.17152 -0.89774,0.43056 -1.31735,0.65097 -9.40994,4.74225 -17.3401,12.35003 -22.47718,21.54962 -3.08096,5.4705 -5.16835,11.49097 -6.18225,17.68544 -0.0757,0.48872 -0.18551,1.19695 -0.24104,1.68088 -0.67257,5.35199 -0.3694,10.75658 -0.4342,16.1346 0.018,12.41928 -0.0418,24.8393 0.048,37.25806 0.0454,1.12284 0.15023,2.24233 0.29558,3.35645 0.0343,0.23327 0.0974,0.70669 0.15384,1.03326 1.41368,8.76916 5.93406,17.00486 12.60926,22.87114 0.28372,0.25208 0.72591,0.62971 1.07646,0.91971 3.77612,3.09301 8.12045,5.50224 12.76926,6.99941 0.30027,0.0914 0.62992,0.20162 0.96779,0.29773 2.13743,0.6329 4.44097,1.08634 6.55526,1.32425 9.51532,1.10224 19.40523,-1.46934 27.15484,-7.10523 4.69871,-3.39376 8.615,-7.85345 11.3818,-12.946 3.3936,-5.91062 6.8001,-11.81418 10.12477,-17.76404 4.65223,-8.36667 8.93532,-16.93721 12.84852,-25.67383 2.09143,-4.68147 4.14047,-9.54568 6.01106,-14.32304 4.49146,-11.42294 8.34446,-23.09617 11.54759,-34.94492 0.99227,-3.69936 1.96266,-7.53585 2.83381,-11.27261 0.45618,-1.95372 0.90303,-3.90972 1.35539,-5.86445 24.55476,-7.36037 49.10926,-14.72162 73.6644,-22.08072 -3.96725,11.91517 -7.98345,23.81475 -11.8777,35.75359 -1.36139,5.24224 0.8062,11.20608 5.25889,14.30644 2.62036,1.91094 5.9178,2.82208 9.14789,2.62564 26.47015,5e-5 52.94095,0.0254 79.4107,-0.0209 5.44983,-0.2776 10.52656,-4.17468 12.13889,-9.39995 1.37431,-4.21228 0.60633,-9.09052 -2.14468,-12.58943 -2.45549,-3.20623 -6.37802,-5.27294 -10.43184,-5.33601 -0.22865,-0.002 -0.73037,-0.0258 -1.06527,-0.0258 -9.50373,0.0215 -19.00803,0.002 -28.51202,0.009 -10.50085,0 -21.00169,0 -31.50254,0 4.75699,-14.26341 9.56707,-28.51012 14.246,-42.79882 1.33385,-5.22728 -0.81773,-11.13723 -5.20138,-14.28355 -3.33785,-2.45686 -7.81704,-3.31056 -11.80745,-2.14584 -2.45793,0.67194 -4.87405,1.48626 -7.32487,2.18357 -26.05096,7.82482 -52.1013,15.65165 -78.15263,23.47522 0.83226,-7.37443 1.72117,-14.79535 2.29265,-22.16336 0.38286,-5.19802 0.67324,-10.51383 0.82252,-15.71068 0.13942,-5.75832 0.21446,-11.5215 0.0615,-17.27997 -0.60263,-12.16787 -5.5784,-24.05144 -13.78827,-33.04746 -1.68456,-1.85392 -3.4986,-3.5897 -5.42352,-5.19273 -0.33576,-0.27717 -0.82511,-0.67726 -1.22837,-0.99023 -7.26754,-5.72404 -16.04718,-9.50888 -25.20765,-10.81968 -2.80012,-0.41032 -5.63282,-0.59794 -8.46258,-0.56328 z m 14.27339,147.36892 c -2.80693,9.05144 -5.58351,18.12181 -8.96409,26.97952 -6.19305,16.43179 -13.85899,32.29627 -22.72222,47.45184 -2.38864,4.14356 -4.69911,8.33435 -7.19051,12.41692 -3.02668,4.27023 -9.1858,5.94587 -13.94235,3.73548 -4.30199,-1.854 -7.18674,-6.55248 -6.84046,-11.23258 -0.002,-15.01588 -0.0431,-30.03213 0.0213,-45.04779 0.25193,-8.70191 5.27645,-17.05523 12.76274,-21.46852 2.75146,-1.66818 5.84721,-2.62934 8.92925,-3.47857 12.88091,-3.86338 25.76148,-7.728 38.64262,-11.59061 -0.23207,0.74477 -0.46414,1.48954 -0.69619,2.23431 z" />
    <path
       id="path5"
       style="fill:#000000;fill-opacity:1;stroke-width:0.622061"
       d="m 494.29334,731.86958 c -37.02315,0.0197 -74.04634,4.9e-4 -111.06949,0.005 -25.70902,-6.1e-4 -51.41804,-0.001 -77.12706,-0.001 -2.49523,5.87386 -5.15005,11.67946 -7.94221,17.41771 65.74651,-10e-4 131.49327,10e-4 197.23966,-0.0162 3.91215,-0.16448 7.49588,-3.31804 8.05876,-7.2118 0.53363,-3.13347 -0.72181,-6.559 -3.32977,-8.433 -1.65664,-1.24851 -3.76208,-1.86469 -5.82989,-1.75985 z" />
  </g>
</svg>
